<?xml version="1.0" encoding="utf-8"?>
<!-- Generator: Adobe Illustrator 18.0.0, SVG Export Plug-In . SVG Version: 6.00 Build 0)  -->
<!DOCTYPE svg PUBLIC "-//W3C//DTD SVG 1.1//EN" "http://www.w3.org/Graphics/SVG/1.1/DTD/svg11.dtd">
<svg version="1.1" id="Layer_1" xmlns="http://www.w3.org/2000/svg" xmlns:xlink="http://www.w3.org/1999/xlink" x="0px" y="0px"
	 viewBox="0 0 28 40" enable-background="new 0 0 28 40" xml:space="preserve">
<g>
	<defs>
		<rect id="SVGID_1_" width="28" height="40"/>
	</defs>
	<clipPath id="SVGID_2_">
		<use xlink:href="#SVGID_1_"  overflow="visible"/>
	</clipPath>
	<g clip-path="url(#SVGID_2_)">
		<defs>
			<rect id="SVGID_3_" width="28" height="40"/>
		</defs>
		<clipPath id="SVGID_4_">
			<use xlink:href="#SVGID_3_"  overflow="visible"/>
		</clipPath>
		<g opacity="0.6" clip-path="url(#SVGID_4_)">
			<g>
				<defs>
					<rect id="SVGID_5_" x="10.2" y="16.2" width="15.1" height="13.3"/>
				</defs>
				<clipPath id="SVGID_6_">
					<use xlink:href="#SVGID_5_"  overflow="visible"/>
				</clipPath>
				<g clip-path="url(#SVGID_6_)">
					<defs>
						<rect id="SVGID_7_" x="10.2" y="16.2" width="15.1" height="13.3"/>
					</defs>
					<clipPath id="SVGID_8_">
						<use xlink:href="#SVGID_7_"  overflow="visible"/>
					</clipPath>
					
						<path clip-path="url(#SVGID_8_)" fill="none" stroke="#818181" stroke-width="0.607" stroke-linecap="round" stroke-linejoin="round" d="
						M20.1,18.9c4.1-1.9,7.4,5.8,2.7,7.1c1.3,1.9-2.2,4.5-4.4,2.3c-4,1.7-8.3-2.7-6.5-4.5c-3-1.5-0.2-5.8,2-4.6
						C12.9,16.1,20.7,15.2,20.1,18.9z"/>
				</g>
			</g>
		</g>
	</g>
	<g clip-path="url(#SVGID_2_)">
		<defs>
			<path id="SVGID_9_" d="M13.3,19.2c-2.1-1.3-4.9,3-2,4.6c-1.8,1.8,2.5,6.1,6.5,4.5c2.2,2.2,5.7-0.4,4.4-2.3c4.7-1.3,1.4-9-2.7-7.1
				c0.3-1.7-1.2-2.5-2.8-2.5C14.9,16.4,12.8,17.4,13.3,19.2"/>
		</defs>
		<clipPath id="SVGID_10_">
			<use xlink:href="#SVGID_9_"  overflow="visible"/>
		</clipPath>
		
			<linearGradient id="SVGID_11_" gradientUnits="userSpaceOnUse" x1="0" y1="39.9999" x2="1" y2="39.9999" gradientTransform="matrix(14.5449 0 0 14.5449 10 -558.4062)">
			<stop  offset="0" style="stop-color:#FFFFFF"/>
			<stop  offset="0.8" style="stop-color:#E9E9EA"/>
			<stop  offset="1" style="stop-color:#DADBDC"/>
		</linearGradient>
		<rect x="8.3" y="16.4" clip-path="url(#SVGID_10_)" fill="url(#SVGID_11_)" width="18.6" height="14"/>
	</g>
	<g clip-path="url(#SVGID_2_)">
		<defs>
			<rect id="SVGID_12_" width="28" height="40"/>
		</defs>
		<clipPath id="SVGID_13_">
			<use xlink:href="#SVGID_12_"  overflow="visible"/>
		</clipPath>
		
			<path clip-path="url(#SVGID_13_)" fill="none" stroke="#CACDCA" stroke-width="0.607" stroke-linecap="round" stroke-linejoin="round" d="
			M19.6,18.9c4.1-1.9,7.4,5.8,2.7,7.1c1.3,1.9-2.2,4.5-4.4,2.3c-4,1.7-8.4-2.7-6.5-4.5c-3-1.5-0.2-5.8,2-4.6
			C12.4,16,20.2,15.1,19.6,18.9z"/>
	</g>
	<g clip-path="url(#SVGID_2_)">
		<defs>
			<path id="SVGID_14_" d="M13.1,19.5c-2.1-1.3-4.9,3-2,4.6c-1.8,1.8,2.5,6.1,6.5,4.5c2.2,2.2,5.7-0.4,4.4-2.3
				c4.7-1.3,1.4-9-2.7-7.1c0.3-1.7-1.2-2.5-2.8-2.5C14.7,16.7,12.6,17.8,13.1,19.5"/>
		</defs>
		<clipPath id="SVGID_15_">
			<use xlink:href="#SVGID_14_"  overflow="visible"/>
		</clipPath>
		
			<linearGradient id="SVGID_16_" gradientUnits="userSpaceOnUse" x1="0" y1="39.9995" x2="1" y2="39.9995" gradientTransform="matrix(14.5498 0 0 14.5498 9.8203 -558.2578)">
			<stop  offset="0" style="stop-color:#FFFFFF"/>
			<stop  offset="0.8" style="stop-color:#E9E9EA"/>
			<stop  offset="1" style="stop-color:#DADBDC"/>
		</linearGradient>
		<rect x="8.1" y="16.7" clip-path="url(#SVGID_15_)" fill="url(#SVGID_16_)" width="18.6" height="14"/>
	</g>
	<g clip-path="url(#SVGID_2_)">
		<defs>
			<rect id="SVGID_17_" width="28" height="40"/>
		</defs>
		<clipPath id="SVGID_18_">
			<use xlink:href="#SVGID_17_"  overflow="visible"/>
		</clipPath>
		<g opacity="0.4" clip-path="url(#SVGID_18_)">
			<g>
				<defs>
					<rect id="SVGID_19_" x="9.5" y="16.4" width="15.2" height="13.3"/>
				</defs>
				<clipPath id="SVGID_20_">
					<use xlink:href="#SVGID_19_"  overflow="visible"/>
				</clipPath>
				<g clip-path="url(#SVGID_20_)">
					<defs>
						<rect id="SVGID_21_" x="9.5" y="16.4" width="15.2" height="13.3"/>
					</defs>
					<clipPath id="SVGID_22_">
						<use xlink:href="#SVGID_21_"  overflow="visible"/>
					</clipPath>
					
						<path clip-path="url(#SVGID_22_)" fill="none" stroke="#DCDCDE" stroke-width="0.607" stroke-linecap="round" stroke-linejoin="round" d="
						M19.4,19.2c4.1-1.9,7.4,5.8,2.7,7.1c1.3,1.9-2.2,4.5-4.4,2.3c-4,1.7-8.4-2.7-6.5-4.5c-3-1.5-0.2-5.8,2-4.6
						C12.2,16.3,20,15.4,19.4,19.2z"/>
				</g>
			</g>
		</g>
		<g opacity="0.8" clip-path="url(#SVGID_18_)">
			<g>
				<defs>
					<rect id="SVGID_23_" x="8.9" y="18.8" width="15.8" height="16.8"/>
				</defs>
				<clipPath id="SVGID_24_">
					<use xlink:href="#SVGID_23_"  overflow="visible"/>
				</clipPath>
				<g clip-path="url(#SVGID_24_)">
					<defs>
						<rect id="SVGID_25_" x="8.9" y="18.8" width="15.8" height="16.8"/>
					</defs>
					<clipPath id="SVGID_26_">
						<use xlink:href="#SVGID_25_"  overflow="visible"/>
					</clipPath>
					
						<path clip-path="url(#SVGID_26_)" fill="none" stroke="#818181" stroke-width="0.607" stroke-linecap="round" stroke-linejoin="round" d="
						M23.1,25.8c2.4,0.8,1,5.3-2.1,4c2.4,4.5-3.4,7-6.6,4.4c-5.7,0-6.5-4.6-4-7.3c-2.4-0.5-1.6-6.3,2.1-5.8c-0.4-1.7,2.7-2.4,3.3-1
						c0.2-1.2,2.2-1.5,2.1,0.5c0.8-0.8,2.4-1,2.3,1C22.9,21.2,24.1,24.2,23.1,25.8z"/>
				</g>
			</g>
		</g>
		<g opacity="0.88" clip-path="url(#SVGID_18_)">
			<g>
				<defs>
					<rect id="SVGID_27_" x="2.7" y="13.3" width="27.7" height="28"/>
				</defs>
				<clipPath id="SVGID_28_">
					<use xlink:href="#SVGID_27_"  overflow="visible"/>
				</clipPath>
				<g clip-path="url(#SVGID_28_)">
					<defs>
						<path id="SVGID_29_" d="M16.7,18.8c-0.5,0-1,0.4-1.1,1c-0.6-1.4-3.6-0.8-3.3,1c-2.2-0.3-3.4,1.8-3.4,3.5v0.1
							c0,1.1,0.5,2,1.4,2.2c-2.5,2.7-1.7,7.3,4,7.3c0.9,0.7,1.9,1,2.9,1h0.1c2.7,0,5.2-2.2,3.5-5.4c3,1.3,4.4-3.3,2.1-4
							c1-1.6-0.3-4.6-3-4.3c0.2-2-1.5-1.7-2.3-1C17.7,19.2,17.3,18.8,16.7,18.8L16.7,18.8z"/>
					</defs>
					<clipPath id="SVGID_30_">
						<use xlink:href="#SVGID_29_"  overflow="visible"/>
					</clipPath>
					
						<linearGradient id="SVGID_31_" gradientUnits="userSpaceOnUse" x1="0" y1="39.9876" x2="1" y2="39.9876" gradientTransform="matrix(4.8316 15.8033 -15.8033 4.8316 646.0857 -174.3561)">
						<stop  offset="0" style="stop-color:#EDEDEE"/>
						<stop  offset="8.163450e-03" style="stop-color:#EDEDEE"/>
						<stop  offset="0.4204" style="stop-color:#FFFFFF"/>
						<stop  offset="0.8408" style="stop-color:#E6E7E8"/>
						<stop  offset="1" style="stop-color:#D1D3D4"/>
					</linearGradient>
					<polygon clip-path="url(#SVGID_30_)" fill="url(#SVGID_31_)" points="3.1,19.7 9.3,39.8 29.9,33.5 23.8,13.4 					"/>
				</g>
			</g>
		</g>
		<g opacity="0.8" clip-path="url(#SVGID_18_)">
			<g>
				<defs>
					<rect id="SVGID_32_" x="8.6" y="18.4" width="15.8" height="16.8"/>
				</defs>
				<clipPath id="SVGID_33_">
					<use xlink:href="#SVGID_32_"  overflow="visible"/>
				</clipPath>
				<g clip-path="url(#SVGID_33_)">
					<defs>
						<rect id="SVGID_34_" x="8.6" y="18.4" width="15.8" height="16.8"/>
					</defs>
					<clipPath id="SVGID_35_">
						<use xlink:href="#SVGID_34_"  overflow="visible"/>
					</clipPath>
					
						<path clip-path="url(#SVGID_35_)" fill="none" stroke="#B3B3B3" stroke-width="0.607" stroke-linecap="round" stroke-linejoin="round" d="
						M22.9,25.5c2.4,0.8,1,5.3-2.1,4c2.4,4.5-3.4,7-6.6,4.4c-5.7,0-6.5-4.6-4-7.3c-2.4-0.5-1.6-6.3,2.1-5.8c-0.4-1.7,2.7-2.4,3.3-1
						c0.2-1.2,2.2-1.5,2.1,0.5c0.8-0.8,2.4-1,2.3,1C22.6,20.9,23.9,23.9,22.9,25.5z"/>
				</g>
			</g>
		</g>
		<g opacity="0.94" clip-path="url(#SVGID_18_)">
			<g>
				<defs>
					<rect id="SVGID_36_" x="2.4" y="13.2" width="27.7" height="28"/>
				</defs>
				<clipPath id="SVGID_37_">
					<use xlink:href="#SVGID_36_"  overflow="visible"/>
				</clipPath>
				<g clip-path="url(#SVGID_37_)">
					<defs>
						<path id="SVGID_38_" d="M16.4,18.6c-0.5,0-1,0.4-1.1,1c-0.6-1.4-3.6-0.8-3.3,1c-2.2-0.3-3.4,1.8-3.4,3.6v0.1
							c0,1.1,0.5,2,1.4,2.2c-2.5,2.7-1.7,7.3,4,7.3c0.9,0.7,1.9,1,2.9,1h0.1c2.7,0,5.2-2.2,3.5-5.4c3,1.3,4.4-3.3,2-4
							c1-1.6-0.3-4.6-3-4.3c0.1-2-1.5-1.7-2.3-1C17.5,19.1,17,18.7,16.4,18.6L16.4,18.6z"/>
					</defs>
					<clipPath id="SVGID_39_">
						<use xlink:href="#SVGID_38_"  overflow="visible"/>
					</clipPath>
					
						<linearGradient id="SVGID_40_" gradientUnits="userSpaceOnUse" x1="0" y1="39.9854" x2="1" y2="39.9854" gradientTransform="matrix(4.8321 15.8052 -15.8052 4.8321 645.8789 -174.4646)">
						<stop  offset="0" style="stop-color:#EDEDEE"/>
						<stop  offset="8.163450e-03" style="stop-color:#EDEDEE"/>
						<stop  offset="0.4204" style="stop-color:#FFFFFF"/>
						<stop  offset="0.8408" style="stop-color:#E6E7E8"/>
						<stop  offset="1" style="stop-color:#D1D3D4"/>
					</linearGradient>
					<polygon clip-path="url(#SVGID_39_)" fill="url(#SVGID_40_)" points="2.9,19.6 9,39.7 29.7,33.4 23.5,13.3 					"/>
				</g>
			</g>
		</g>
		<g opacity="0.59" clip-path="url(#SVGID_18_)">
			<g>
				<defs>
					<rect id="SVGID_41_" x="8.4" y="18.3" width="15.8" height="16.8"/>
				</defs>
				<clipPath id="SVGID_42_">
					<use xlink:href="#SVGID_41_"  overflow="visible"/>
				</clipPath>
				<g clip-path="url(#SVGID_42_)">
					<defs>
						<rect id="SVGID_43_" x="8.4" y="18.3" width="15.8" height="16.8"/>
					</defs>
					<clipPath id="SVGID_44_">
						<use xlink:href="#SVGID_43_"  overflow="visible"/>
					</clipPath>
					
						<path clip-path="url(#SVGID_44_)" fill="none" stroke="#C7C7C7" stroke-width="0.607" stroke-linecap="round" stroke-linejoin="round" d="
						M22.7,25.4c2.4,0.8,1,5.3-2.1,4c2.4,4.5-3.4,7-6.6,4.4c-5.7,0-6.5-4.6-4-7.3c-2.4-0.5-1.6-6.3,2.1-5.8c-0.4-1.7,2.7-2.4,3.3-1
						c0.2-1.2,2.2-1.5,2.1,0.5c0.8-0.8,2.4-1,2.3,1C22.4,20.8,23.6,23.8,22.7,25.4z"/>
				</g>
			</g>
		</g>
		<g opacity="0.84" clip-path="url(#SVGID_18_)">
			<g>
				<defs>
					<rect id="SVGID_45_" x="3.8" y="14.5" width="24.9" height="25.2"/>
				</defs>
				<clipPath id="SVGID_46_">
					<use xlink:href="#SVGID_45_"  overflow="visible"/>
				</clipPath>
				<g clip-path="url(#SVGID_46_)">
					<defs>
						<path id="SVGID_47_" d="M16.4,19.4c-0.4,0-0.9,0.3-1,0.9c-0.5-1.3-3.3-0.7-2.9,0.9c-2-0.2-3.1,1.6-3.1,3.2v0.1
							c0,1,0.4,1.8,1.2,1.9c-2.3,2.5-1.5,6.6,3.6,6.6C15,33.7,16,34,16.9,34H17c2.4,0,4.7-2,3.2-4.9c1.8,0.8,2.9-0.7,2.9-2
							c0-0.7-0.3-1.4-1.1-1.6c0.9-1.5-0.2-4.2-2.7-3.9c0.1-1.8-1.4-1.6-2-0.9C17.3,19.8,16.9,19.5,16.4,19.4L16.4,19.4z"/>
					</defs>
					<clipPath id="SVGID_48_">
						<use xlink:href="#SVGID_47_"  overflow="visible"/>
					</clipPath>
					
						<linearGradient id="SVGID_49_" gradientUnits="userSpaceOnUse" x1="0" y1="40.0199" x2="1" y2="40.0199" gradientTransform="matrix(4.3487 14.2241 -14.2241 4.3487 582.8705 -154.3636)">
						<stop  offset="0" style="stop-color:#EDEDEE"/>
						<stop  offset="8.163450e-03" style="stop-color:#EDEDEE"/>
						<stop  offset="0.4204" style="stop-color:#FFFFFF"/>
						<stop  offset="0.8408" style="stop-color:#E6E7E8"/>
						<stop  offset="1" style="stop-color:#D1D3D4"/>
					</linearGradient>
					<polygon clip-path="url(#SVGID_48_)" fill="url(#SVGID_49_)" points="4.2,20.3 9.6,38.1 27.2,32.7 21.8,14.9 					"/>
				</g>
			</g>
		</g>
		<g opacity="0.45" clip-path="url(#SVGID_18_)">
			<g>
				<defs>
					<rect id="SVGID_50_" x="8.9" y="19" width="14.6" height="15.5"/>
				</defs>
				<clipPath id="SVGID_51_">
					<use xlink:href="#SVGID_50_"  overflow="visible"/>
				</clipPath>
				<g clip-path="url(#SVGID_51_)">
					<defs>
						<rect id="SVGID_52_" x="8.9" y="19" width="14.6" height="15.5"/>
					</defs>
					<clipPath id="SVGID_53_">
						<use xlink:href="#SVGID_52_"  overflow="visible"/>
					</clipPath>
					
						<path clip-path="url(#SVGID_53_)" fill="none" stroke="#D2D2D2" stroke-width="0.9" stroke-linecap="round" stroke-linejoin="round" d="
						M22,25.5c2.1,0.7,0.9,4.8-1.8,3.6c2.1,4-3.1,6.3-5.9,3.9c-5.1,0-5.9-4.1-3.6-6.6c-2.2-0.4-1.4-5.7,1.8-5.3
						c-0.3-1.6,2.4-2.2,2.9-0.9c0.1-1.1,2-1.4,1.8,0.4c0.7-0.7,2.2-0.9,2,0.9C21.7,21.4,22.9,24,22,25.5z"/>
				</g>
			</g>
		</g>
	</g>
	<g clip-path="url(#SVGID_2_)">
		<defs>
			<path id="SVGID_54_" d="M11.7,23c-0.7,0-1.5,0.4-1.9,1.1c-2.1-1.3-2.9,1.5-2.2,2.8c-1.5-0.6-3.5,1.3-3.6,2.7
				c-0.3,2.2,0.9,4.7,4.2,3.9C9.1,38,15.8,36.1,15,33c1.6,1.7,3.9,0,3.4-1.7c1.7-1.3-0.4-2.8-0.4-2.8s-0.2-1.8-2-1.2
				c0.8-2-1-4.3-2.7-2.6C13.5,23.6,12.6,23,11.7,23C11.7,23,11.7,23,11.7,23"/>
		</defs>
		<clipPath id="SVGID_55_">
			<use xlink:href="#SVGID_54_"  overflow="visible"/>
		</clipPath>
		
			<linearGradient id="SVGID_56_" gradientUnits="userSpaceOnUse" x1="0" y1="39.9997" x2="1" y2="39.9997" gradientTransform="matrix(2.918 12.6392 -12.6392 2.918 515.8267 -93.4309)">
			<stop  offset="0" style="stop-color:#EFEFF0"/>
			<stop  offset="4.074100e-03" style="stop-color:#EFEFF0"/>
			<stop  offset="0.6653" style="stop-color:#FFFFFF"/>
			<stop  offset="1" style="stop-color:#DADBDC"/>
		</linearGradient>
		<polygon clip-path="url(#SVGID_55_)" fill="url(#SVGID_56_)" points="0.4,23.6 4.5,41.6 23.4,37.3 19.3,19.2 		"/>
	</g>
	<g clip-path="url(#SVGID_2_)">
		<defs>
			<rect id="SVGID_57_" width="28" height="40"/>
		</defs>
		<clipPath id="SVGID_58_">
			<use xlink:href="#SVGID_57_"  overflow="visible"/>
		</clipPath>
		<g opacity="0.9" clip-path="url(#SVGID_58_)">
			<g>
				<defs>
					<rect id="SVGID_59_" x="3.6" y="22.7" width="15.7" height="13.8"/>
				</defs>
				<clipPath id="SVGID_60_">
					<use xlink:href="#SVGID_59_"  overflow="visible"/>
				</clipPath>
				<g clip-path="url(#SVGID_60_)">
					<defs>
						<rect id="SVGID_61_" x="3.6" y="22.7" width="15.7" height="13.8"/>
					</defs>
					<clipPath id="SVGID_62_">
						<use xlink:href="#SVGID_61_"  overflow="visible"/>
					</clipPath>
					
						<path clip-path="url(#SVGID_62_)" fill="none" stroke="#8B8B8B" stroke-width="0.607" stroke-linecap="round" stroke-linejoin="round" d="
						M18,28.5c0,0,2.1,1.4,0.4,2.8c0.5,1.7-1.8,3.5-3.4,1.7c0.8,3.2-5.9,5.1-6.8,0.6c-3.4,0.7-4.5-1.8-4.2-3.9
						c0.2-1.4,2.1-3.3,3.6-2.7c-0.7-1.3,0.1-4.1,2.2-2.8c0.8-1.7,3.8-1.4,3.5,0.5c1.7-1.7,3.5,0.7,2.7,2.6
						C17.8,26.6,18,28.5,18,28.5z"/>
				</g>
			</g>
		</g>
	</g>
	<g clip-path="url(#SVGID_2_)">
		<defs>
			<path id="SVGID_63_" d="M9.8,23.6c-2.1-1.3-2.9,1.5-2.2,2.8c-1.5-0.6-3.5,1.3-3.6,2.7c-0.3,2.2,0.9,4.7,4.2,4
				c0.9,4.5,7.6,2.6,6.8-0.6c1.6,1.7,3.9,0,3.4-1.7C20.1,29.5,18,28,18,28s-0.2-1.9-2-1.2c0.8-2-1-4.3-2.7-2.6
				c0.2-1.1-0.7-1.6-1.6-1.6C11,22.5,10.2,22.9,9.8,23.6"/>
		</defs>
		<clipPath id="SVGID_64_">
			<use xlink:href="#SVGID_63_"  overflow="visible"/>
		</clipPath>
		
			<linearGradient id="SVGID_65_" gradientUnits="userSpaceOnUse" x1="0" y1="40" x2="1" y2="40" gradientTransform="matrix(2.918 12.6392 -12.6392 2.918 515.8657 -93.9075)">
			<stop  offset="0" style="stop-color:#EFEFF0"/>
			<stop  offset="4.074100e-03" style="stop-color:#EFEFF0"/>
			<stop  offset="0.6653" style="stop-color:#FFFFFF"/>
			<stop  offset="1" style="stop-color:#DADBDC"/>
		</linearGradient>
		<polygon clip-path="url(#SVGID_64_)" fill="url(#SVGID_65_)" points="0.4,23.1 4.6,41.2 23.5,36.8 19.3,18.8 		"/>
	</g>
	<g clip-path="url(#SVGID_2_)">
		<defs>
			<rect id="SVGID_66_" width="28" height="40"/>
		</defs>
		<clipPath id="SVGID_67_">
			<use xlink:href="#SVGID_66_"  overflow="visible"/>
		</clipPath>
		<g opacity="0.9" clip-path="url(#SVGID_67_)">
			<g>
				<defs>
					<rect id="SVGID_68_" x="3.7" y="22.2" width="15.7" height="13.8"/>
				</defs>
				<clipPath id="SVGID_69_">
					<use xlink:href="#SVGID_68_"  overflow="visible"/>
				</clipPath>
				<g clip-path="url(#SVGID_69_)">
					<defs>
						<rect id="SVGID_70_" x="3.7" y="22.2" width="15.7" height="13.8"/>
					</defs>
					<clipPath id="SVGID_71_">
						<use xlink:href="#SVGID_70_"  overflow="visible"/>
					</clipPath>
					
						<path clip-path="url(#SVGID_71_)" fill="none" stroke="#B8B8B8" stroke-width="0.607" stroke-linecap="round" stroke-linejoin="round" d="
						M18,28c0,0,2.1,1.4,0.4,2.8c0.5,1.7-1.8,3.5-3.4,1.7c0.8,3.2-5.9,5.1-6.8,0.6c-3.4,0.7-4.5-1.8-4.2-3.9
						c0.2-1.4,2.1-3.3,3.6-2.7c-0.7-1.3,0.1-4.1,2.2-2.8c0.8-1.7,3.8-1.4,3.5,0.5c1.7-1.7,3.5,0.7,2.7,2.6C17.8,26.2,18,28,18,28z"
						/>
				</g>
			</g>
		</g>
	</g>
	<g clip-path="url(#SVGID_2_)">
		<defs>
			<path id="SVGID_72_" d="M11.7,22.3c-0.7,0-1.5,0.4-1.9,1.1c-2.1-1.3-2.9,1.5-2.2,2.8c-1.5-0.6-3.5,1.3-3.6,2.7
				c-0.3,2.2,0.9,4.7,4.2,3.9c0.9,4.5,7.6,2.6,6.8-0.6c1.6,1.7,3.9,0,3.4-1.7c1.7-1.3-0.4-2.8-0.4-2.8s-0.2-1.9-2-1.2
				c0.8-2-1-4.3-2.7-2.6C13.5,22.8,12.7,22.3,11.7,22.3C11.7,22.3,11.7,22.3,11.7,22.3"/>
		</defs>
		<clipPath id="SVGID_73_">
			<use xlink:href="#SVGID_72_"  overflow="visible"/>
		</clipPath>
		
			<linearGradient id="SVGID_74_" gradientUnits="userSpaceOnUse" x1="0" y1="39.9999" x2="1" y2="39.9999" gradientTransform="matrix(2.918 12.6392 -12.6392 2.918 515.8657 -94.1653)">
			<stop  offset="0" style="stop-color:#EFEFF0"/>
			<stop  offset="4.074100e-03" style="stop-color:#EFEFF0"/>
			<stop  offset="0.6653" style="stop-color:#FFFFFF"/>
			<stop  offset="1" style="stop-color:#DADBDC"/>
		</linearGradient>
		<polygon clip-path="url(#SVGID_73_)" fill="url(#SVGID_74_)" points="0.4,22.9 4.6,40.9 23.5,36.5 19.3,18.5 		"/>
	</g>
	<g clip-path="url(#SVGID_2_)">
		<defs>
			<rect id="SVGID_75_" width="28" height="40"/>
		</defs>
		<clipPath id="SVGID_76_">
			<use xlink:href="#SVGID_75_"  overflow="visible"/>
		</clipPath>
		<g opacity="0.7" clip-path="url(#SVGID_76_)">
			<g>
				<defs>
					<rect id="SVGID_77_" x="3.7" y="22" width="15.7" height="13.8"/>
				</defs>
				<clipPath id="SVGID_78_">
					<use xlink:href="#SVGID_77_"  overflow="visible"/>
				</clipPath>
				<g clip-path="url(#SVGID_78_)">
					<defs>
						<rect id="SVGID_79_" x="3.7" y="22" width="15.7" height="13.8"/>
					</defs>
					<clipPath id="SVGID_80_">
						<use xlink:href="#SVGID_79_"  overflow="visible"/>
					</clipPath>
					
						<path clip-path="url(#SVGID_80_)" fill="none" stroke="#D2D2D2" stroke-width="0.607" stroke-linecap="round" stroke-linejoin="round" d="
						M18,27.8c0,0,2.1,1.4,0.4,2.8c0.5,1.7-1.8,3.5-3.4,1.7c0.8,3.2-5.9,5.1-6.8,0.6c-3.4,0.7-4.5-1.8-4.2-3.9
						c0.2-1.4,2.1-3.3,3.6-2.7c-0.7-1.3,0.1-4.1,2.2-2.8c0.8-1.7,3.8-1.4,3.5,0.5c1.7-1.7,3.5,0.7,2.7,2.6
						C17.8,25.9,18,27.8,18,27.8z"/>
				</g>
			</g>
		</g>
		<g opacity="0.98" clip-path="url(#SVGID_76_)">
			<g>
				<defs>
					<rect id="SVGID_81_" x="-6.3" y="13.3" width="27.6" height="27.6"/>
				</defs>
				<clipPath id="SVGID_82_">
					<use xlink:href="#SVGID_81_"  overflow="visible"/>
				</clipPath>
				<g clip-path="url(#SVGID_82_)">
					<defs>
						<path id="SVGID_83_" d="M4.4,25.2c-1.5,0.5-2.1,1.5-2.1,2.5v0.1c0,2.1,2.5,4.2,3.9,2.3c-0.3,2.2,4.3,2.6,3.7,0.2
							c1,1.4,4.7-0.2,2.1-1.9c1.8,0.2,2.4-0.6,2.1-1.5c-0.2-0.8-1-1.6-2.1-1.5c1.7-2.5-3.6-3.8-4.3-2.7c-0.3-0.4-0.6-0.5-1-0.5
							C5.2,22.2,3.3,24.2,4.4,25.2"/>
					</defs>
					<clipPath id="SVGID_84_">
						<use xlink:href="#SVGID_83_"  overflow="visible"/>
					</clipPath>
					
						<linearGradient id="SVGID_85_" gradientUnits="userSpaceOnUse" x1="0" y1="39.9364" x2="1" y2="39.9364" gradientTransform="matrix(-8.356 7.0115 -7.0115 -8.356 292.313 357.6632)">
						<stop  offset="0" style="stop-color:#FFFFFF"/>
						<stop  offset="0.8939" style="stop-color:#F3F4F4"/>
						<stop  offset="1" style="stop-color:#DEDFE0"/>
					</linearGradient>
					<polygon clip-path="url(#SVGID_84_)" fill="url(#SVGID_85_)" points="9.5,15.7 -3.2,26.3 7.3,38.8 20,28.2 					"/>
				</g>
			</g>
		</g>
		<g opacity="0.9" clip-path="url(#SVGID_76_)">
			<g>
				<defs>
					<rect id="SVGID_86_" x="1.9" y="21.9" width="12.5" height="10.4"/>
				</defs>
				<clipPath id="SVGID_87_">
					<use xlink:href="#SVGID_86_"  overflow="visible"/>
				</clipPath>
				<g clip-path="url(#SVGID_87_)">
					<defs>
						<rect id="SVGID_88_" x="1.9" y="21.9" width="12.5" height="10.4"/>
					</defs>
					<clipPath id="SVGID_89_">
						<use xlink:href="#SVGID_88_"  overflow="visible"/>
					</clipPath>
					
						<path clip-path="url(#SVGID_89_)" fill="none" stroke="#868686" stroke-width="0.607" stroke-linecap="round" stroke-linejoin="round" d="
						M9.9,30.4c0.6,2.4-4,2-3.7-0.2c-2.2,2.8-6.6-3.3-1.8-5C3,24,6.5,21.1,7.7,22.8c0.7-1,6,0.2,4.3,2.7c2.2-0.1,3.4,3.4-0.1,3
						C14.5,30.2,10.9,31.8,9.9,30.4z"/>
				</g>
			</g>
		</g>
		<g opacity="0.98" clip-path="url(#SVGID_76_)">
			<g>
				<defs>
					<rect id="SVGID_90_" x="-6.2" y="12.9" width="27.6" height="27.6"/>
				</defs>
				<clipPath id="SVGID_91_">
					<use xlink:href="#SVGID_90_"  overflow="visible"/>
				</clipPath>
				<g clip-path="url(#SVGID_91_)">
					<defs>
						<path id="SVGID_92_" d="M6.7,21.9c-1.5,0-3.3,2-2.3,2.9c-4.8,1.6-0.4,7.8,1.8,5c-0.2,1.2,1,1.8,2.1,1.8h0.1
							c0.9,0,1.8-0.5,1.5-1.6c1,1.4,4.7-0.2,2.1-1.9c1.8,0.2,2.4-0.6,2.1-1.5c-0.2-0.8-1-1.6-2.1-1.5c1.7-2.5-3.6-3.8-4.3-2.7
							C7.5,22,7.1,21.9,6.7,21.9L6.7,21.9z"/>
					</defs>
					<clipPath id="SVGID_93_">
						<use xlink:href="#SVGID_92_"  overflow="visible"/>
					</clipPath>
					
						<linearGradient id="SVGID_94_" gradientUnits="userSpaceOnUse" x1="0" y1="40.0048" x2="1" y2="40.0048" gradientTransform="matrix(-8.3562 7.0117 -7.0117 -8.3562 292.3562 357.319)">
						<stop  offset="0" style="stop-color:#FFFFFF"/>
						<stop  offset="0.8939" style="stop-color:#F3F4F4"/>
						<stop  offset="1" style="stop-color:#DEDFE0"/>
					</linearGradient>
					<polygon clip-path="url(#SVGID_93_)" fill="url(#SVGID_94_)" points="8.4,14 -5.9,26 5.8,40 20.1,28 					"/>
				</g>
			</g>
		</g>
		<g opacity="0.9" clip-path="url(#SVGID_76_)">
			<g>
				<defs>
					<rect id="SVGID_95_" x="2" y="21.6" width="12.5" height="10.4"/>
				</defs>
				<clipPath id="SVGID_96_">
					<use xlink:href="#SVGID_95_"  overflow="visible"/>
				</clipPath>
				<g clip-path="url(#SVGID_96_)">
					<defs>
						<rect id="SVGID_97_" x="2" y="21.6" width="12.5" height="10.4"/>
					</defs>
					<clipPath id="SVGID_98_">
						<use xlink:href="#SVGID_97_"  overflow="visible"/>
					</clipPath>
					
						<path clip-path="url(#SVGID_98_)" fill="none" stroke="#A9A9A9" stroke-width="0.607" stroke-linecap="round" stroke-linejoin="round" d="
						M9.9,30c0.6,2.4-4,2-3.7-0.2c-2.2,2.8-6.6-3.3-1.8-5c-1.4-1.2,2.1-4.1,3.3-2.4c0.7-1,6,0.2,4.3,2.7c2.2-0.1,3.4,3.4-0.1,3
						C14.6,29.8,10.9,31.5,9.9,30z"/>
				</g>
			</g>
		</g>
		<g opacity="0.98" clip-path="url(#SVGID_76_)">
			<g>
				<defs>
					<rect id="SVGID_99_" x="-5.9" y="12.6" width="27.6" height="27.6"/>
				</defs>
				<clipPath id="SVGID_100_">
					<use xlink:href="#SVGID_99_"  overflow="visible"/>
				</clipPath>
				<g clip-path="url(#SVGID_100_)">
					<defs>
						<path id="SVGID_101_" d="M4.7,24.5c-4.8,1.6-0.4,7.8,1.8,5c-0.3,2.2,4.3,2.6,3.7,0.2c1,1.4,4.7-0.2,2.1-1.9
							c1.6,0.2,2.2-0.4,2.2-1.1v0c0-0.1,0-0.2,0-0.3c-0.2-0.8-1-1.6-2.1-1.5c1.7-2.5-3.6-3.8-4.3-2.7c-0.3-0.4-0.6-0.5-1-0.5
							C5.5,21.6,3.6,23.6,4.7,24.5"/>
					</defs>
					<clipPath id="SVGID_102_">
						<use xlink:href="#SVGID_101_"  overflow="visible"/>
					</clipPath>
					
						<linearGradient id="SVGID_103_" gradientUnits="userSpaceOnUse" x1="0" y1="40.0049" x2="1" y2="40.0049" gradientTransform="matrix(-8.3548 7.0105 -7.0105 -8.3548 292.5951 356.9797)">
						<stop  offset="0" style="stop-color:#FFFFFF"/>
						<stop  offset="0.8939" style="stop-color:#F3F4F4"/>
						<stop  offset="1" style="stop-color:#DEDFE0"/>
					</linearGradient>
					<polygon clip-path="url(#SVGID_102_)" fill="url(#SVGID_103_)" points="8.7,13.7 -5.6,25.8 6.1,39.7 20.4,27.7 					"/>
				</g>
			</g>
		</g>
		<g opacity="0.9" clip-path="url(#SVGID_76_)">
			<g>
				<defs>
					<rect id="SVGID_104_" x="2.3" y="21.3" width="12.5" height="10.4"/>
				</defs>
				<clipPath id="SVGID_105_">
					<use xlink:href="#SVGID_104_"  overflow="visible"/>
				</clipPath>
				<g clip-path="url(#SVGID_105_)">
					<defs>
						<rect id="SVGID_106_" x="2.3" y="21.3" width="12.5" height="10.4"/>
					</defs>
					<clipPath id="SVGID_107_">
						<use xlink:href="#SVGID_106_"  overflow="visible"/>
					</clipPath>
					
						<path clip-path="url(#SVGID_107_)" fill="none" stroke="#D2D2D2" stroke-width="0.607" stroke-linecap="round" stroke-linejoin="round" d="
						M10.2,29.8c0.6,2.4-4,2-3.7-0.2c-2.2,2.8-6.6-3.3-1.8-5c-1.4-1.2,2.1-4.1,3.3-2.4c0.7-1,6,0.2,4.3,2.7c2.2-0.1,3.4,3.4-0.1,3
						C14.9,29.5,11.2,31.2,10.2,29.8z"/>
				</g>
			</g>
		</g>
		<g opacity="0.98" clip-path="url(#SVGID_76_)">
			<g>
				<defs>
					<rect id="SVGID_108_" x="-4.5" y="13.9" width="24.9" height="24.8"/>
				</defs>
				<clipPath id="SVGID_109_">
					<use xlink:href="#SVGID_108_"  overflow="visible"/>
				</clipPath>
				<g clip-path="url(#SVGID_109_)">
					<defs>
						<path id="SVGID_110_" d="M5.1,24.7C3.7,25.1,3.2,26,3.2,27v0c0,1.9,2.2,3.8,3.5,2.1c-0.1,1.1,0.9,1.7,1.9,1.7h0
							c0.9,0,1.6-0.5,1.4-1.5c0.9,1.3,4.2-0.2,1.9-1.7c1.6,0.2,2.1-0.6,1.9-1.3c-0.2-0.7-0.9-1.4-1.9-1.4c1.5-2.3-3.2-3.4-3.9-2.5
							C7.9,22.1,7.5,22,7.2,22C5.8,22,4.1,23.8,5.1,24.7"/>
					</defs>
					<clipPath id="SVGID_111_">
						<use xlink:href="#SVGID_110_"  overflow="visible"/>
					</clipPath>
					
						<linearGradient id="SVGID_112_" gradientUnits="userSpaceOnUse" x1="0" y1="39.9607" x2="1" y2="39.9607" gradientTransform="matrix(-7.5207 6.3107 -6.3107 -7.5207 264.2367 323.9076)">
						<stop  offset="0" style="stop-color:#FFFFFF"/>
						<stop  offset="0.8939" style="stop-color:#F3F4F4"/>
						<stop  offset="1" style="stop-color:#DEDFE0"/>
					</linearGradient>
					<polygon clip-path="url(#SVGID_111_)" fill="url(#SVGID_112_)" points="9.7,16.1 -1.4,25.4 7.7,36.3 18.8,27 					"/>
				</g>
			</g>
		</g>
		<g opacity="0.9" clip-path="url(#SVGID_76_)">
			<g>
				<defs>
					<rect id="SVGID_113_" x="2.8" y="21.7" width="11.4" height="9.5"/>
				</defs>
				<clipPath id="SVGID_114_">
					<use xlink:href="#SVGID_113_"  overflow="visible"/>
				</clipPath>
				<g clip-path="url(#SVGID_114_)">
					<defs>
						<rect id="SVGID_115_" x="2.8" y="21.7" width="11.4" height="9.5"/>
					</defs>
					<clipPath id="SVGID_116_">
						<use xlink:href="#SVGID_115_"  overflow="visible"/>
					</clipPath>
					
						<path clip-path="url(#SVGID_116_)" fill="none" stroke="#E1E1E1" stroke-width="0.675" stroke-linecap="round" stroke-linejoin="round" d="
						M10,29.3c0.5,2.1-3.6,1.8-3.3-0.2c-1.9,2.6-5.9-3-1.6-4.5c-1.2-1.1,1.9-3.7,3-2.2c0.6-0.9,5.4,0.2,3.9,2.5
						c1.9-0.1,3.1,3-0.1,2.7C14.2,29.1,10.9,30.6,10,29.3z"/>
				</g>
			</g>
		</g>
	</g>
	<g clip-path="url(#SVGID_2_)">
		<defs>
			<path id="SVGID_117_" d="M7.4,19.7c-2.9-0.6-4.1,1.3-3.9,3.1c0.1,2.1,1.9,4.2,4.7,2.6c-1.4,5.7,4.9,7.8,7.7,4.9
				c1.9,1,3.2-1.8,2-3.3c1.2,0.3,1.6-0.4,1.5-1.1c-0.1-0.6-0.7-1.2-1.7-1.2c0.7-2.7-1.9-3.1-3.8-2.4c1.1-0.6,0-2-0.6-1.9
				c1.4-1.2-0.8-2.6-1.7-2c-0.1-0.6-1-1.1-1.9-1.1C8.5,17.5,7.4,18.1,7.4,19.7"/>
		</defs>
		<clipPath id="SVGID_118_">
			<use xlink:href="#SVGID_117_"  overflow="visible"/>
		</clipPath>
		
			<linearGradient id="SVGID_119_" gradientUnits="userSpaceOnUse" x1="0" y1="40.0009" x2="1" y2="40.0009" gradientTransform="matrix(13.7536 9.2769 -9.2769 13.7536 375.2173 -529.7222)">
			<stop  offset="0" style="stop-color:#FFFFFF"/>
			<stop  offset="4.074100e-03" style="stop-color:#FFFFFF"/>
			<stop  offset="0.7143" style="stop-color:#F6F6F6"/>
			<stop  offset="0.9184" style="stop-color:#EBEBEC"/>
			<stop  offset="1" style="stop-color:#E2E3E4"/>
		</linearGradient>
		<polygon clip-path="url(#SVGID_118_)" fill="url(#SVGID_119_)" points="-4,28.3 14.4,40.7 26.8,22.4 8.4,10 		"/>
	</g>
	<g clip-path="url(#SVGID_2_)">
		<defs>
			<rect id="SVGID_120_" width="28" height="40"/>
		</defs>
		<clipPath id="SVGID_121_">
			<use xlink:href="#SVGID_120_"  overflow="visible"/>
		</clipPath>
		<g opacity="0.9" clip-path="url(#SVGID_121_)">
			<g>
				<defs>
					<rect id="SVGID_122_" x="3.1" y="17.2" width="16.6" height="14.7"/>
				</defs>
				<clipPath id="SVGID_123_">
					<use xlink:href="#SVGID_122_"  overflow="visible"/>
				</clipPath>
				<g clip-path="url(#SVGID_123_)">
					<defs>
						<rect id="SVGID_124_" x="3.1" y="17.2" width="16.6" height="14.7"/>
					</defs>
					<clipPath id="SVGID_125_">
						<use xlink:href="#SVGID_124_"  overflow="visible"/>
					</clipPath>
					
						<path clip-path="url(#SVGID_125_)" fill="none" stroke="#909090" stroke-width="0.607" stroke-linecap="round" stroke-linejoin="round" d="
						M13.6,22.5c1.9-0.9,4.7-0.6,4,2.2c2.2-0.2,2.4,2.8,0.2,2.3c1.1,1.4-0.1,4.3-2,3.3c-2.8,2.9-9.1,0.8-7.7-4.9
						c-5.1,3-7-6.9-0.7-5.7c0.1-3,3.9-2.5,4.1-1.1c1-0.7,3.2,0.8,1.7,2C13.9,20.4,15.1,22,13.6,22.5z"/>
				</g>
			</g>
		</g>
	</g>
	<g clip-path="url(#SVGID_2_)">
		<defs>
			<path id="SVGID_126_" d="M7.4,19.4c-2.9-0.6-4.1,1.3-3.9,3.1c0.1,2.1,1.9,4.2,4.7,2.6c-1.4,5.7,4.9,7.8,7.7,4.9
				c1.9,1,3.2-1.8,2-3.3c1.2,0.3,1.6-0.4,1.5-1.1c-0.1-0.6-0.7-1.2-1.7-1.2c0.7-2.7-1.9-3.1-3.8-2.4c1.1-0.6,0-2-0.6-1.9
				c1.4-1.2-0.8-2.6-1.7-2c-0.1-0.6-1-1.1-1.9-1.1C8.5,17.1,7.4,17.8,7.4,19.4"/>
		</defs>
		<clipPath id="SVGID_127_">
			<use xlink:href="#SVGID_126_"  overflow="visible"/>
		</clipPath>
		
			<linearGradient id="SVGID_128_" gradientUnits="userSpaceOnUse" x1="0" y1="40.0008" x2="1" y2="40.0008" gradientTransform="matrix(13.7536 9.2769 -9.2769 13.7536 375.2173 -530.0581)">
			<stop  offset="0" style="stop-color:#FFFFFF"/>
			<stop  offset="4.074100e-03" style="stop-color:#FFFFFF"/>
			<stop  offset="0.7143" style="stop-color:#F6F6F6"/>
			<stop  offset="0.9184" style="stop-color:#EBEBEC"/>
			<stop  offset="1" style="stop-color:#E2E3E4"/>
		</linearGradient>
		<polygon clip-path="url(#SVGID_127_)" fill="url(#SVGID_128_)" points="-4,27.9 14.4,40.3 26.8,22.1 8.4,9.7 		"/>
	</g>
	<g clip-path="url(#SVGID_2_)">
		<defs>
			<rect id="SVGID_129_" width="28" height="40"/>
		</defs>
		<clipPath id="SVGID_130_">
			<use xlink:href="#SVGID_129_"  overflow="visible"/>
		</clipPath>
		<g opacity="0.88" clip-path="url(#SVGID_130_)">
			<g>
				<defs>
					<rect id="SVGID_131_" x="3.1" y="16.8" width="16.6" height="14.7"/>
				</defs>
				<clipPath id="SVGID_132_">
					<use xlink:href="#SVGID_131_"  overflow="visible"/>
				</clipPath>
				<g clip-path="url(#SVGID_132_)">
					<defs>
						<rect id="SVGID_133_" x="3.1" y="16.8" width="16.6" height="14.7"/>
					</defs>
					<clipPath id="SVGID_134_">
						<use xlink:href="#SVGID_133_"  overflow="visible"/>
					</clipPath>
					
						<path clip-path="url(#SVGID_134_)" fill="none" stroke="#AEAEAE" stroke-width="0.607" stroke-linecap="round" stroke-linejoin="round" d="
						M13.6,22.2c1.9-0.9,4.7-0.6,4,2.2c2.2-0.2,2.4,2.8,0.2,2.3c1.1,1.4-0.1,4.3-2,3.3c-2.8,2.9-9.1,0.8-7.7-4.9
						c-5.1,3-7-6.9-0.7-5.7c0.1-3,3.9-2.5,4.1-1.1c1-0.7,3.2,0.8,1.7,2C13.9,20.1,15.1,21.7,13.6,22.2z"/>
				</g>
			</g>
		</g>
	</g>
	<g clip-path="url(#SVGID_2_)">
		<defs>
			<path id="SVGID_135_" d="M7.4,19.1c-2.9-0.6-4.1,1.3-3.9,3.1c0.1,2.1,1.9,4.2,4.7,2.6c-1.4,5.7,4.9,7.8,7.7,4.9
				c1.9,1,3.2-1.8,2-3.3c1.2,0.3,1.6-0.4,1.5-1.1c-0.1-0.6-0.7-1.2-1.7-1.2c0.7-2.7-1.9-3.1-3.8-2.4c1.1-0.6,0-2-0.6-1.9
				c1.4-1.2-0.8-2.6-1.7-2c-0.1-0.6-1-1.1-1.9-1.1C8.5,16.9,7.4,17.5,7.4,19.1"/>
		</defs>
		<clipPath id="SVGID_136_">
			<use xlink:href="#SVGID_135_"  overflow="visible"/>
		</clipPath>
		
			<linearGradient id="SVGID_137_" gradientUnits="userSpaceOnUse" x1="0" y1="40.0007" x2="1" y2="40.0007" gradientTransform="matrix(13.7536 9.2769 -9.2769 13.7536 375.2173 -530.3042)">
			<stop  offset="0" style="stop-color:#FFFFFF"/>
			<stop  offset="4.074100e-03" style="stop-color:#FFFFFF"/>
			<stop  offset="0.7143" style="stop-color:#F6F6F6"/>
			<stop  offset="0.9184" style="stop-color:#EBEBEC"/>
			<stop  offset="1" style="stop-color:#E2E3E4"/>
		</linearGradient>
		<polygon clip-path="url(#SVGID_136_)" fill="url(#SVGID_137_)" points="-4,27.7 14.4,40.1 26.8,21.8 8.4,9.4 		"/>
	</g>
	<g clip-path="url(#SVGID_2_)">
		<defs>
			<rect id="SVGID_138_" width="28" height="40"/>
		</defs>
		<clipPath id="SVGID_139_">
			<use xlink:href="#SVGID_138_"  overflow="visible"/>
		</clipPath>
		<g opacity="0.88" clip-path="url(#SVGID_139_)">
			<g>
				<defs>
					<rect id="SVGID_140_" x="3.1" y="16.6" width="16.6" height="14.7"/>
				</defs>
				<clipPath id="SVGID_141_">
					<use xlink:href="#SVGID_140_"  overflow="visible"/>
				</clipPath>
				<g clip-path="url(#SVGID_141_)">
					<defs>
						<rect id="SVGID_142_" x="3.1" y="16.6" width="16.6" height="14.7"/>
					</defs>
					<clipPath id="SVGID_143_">
						<use xlink:href="#SVGID_142_"  overflow="visible"/>
					</clipPath>
					
						<path clip-path="url(#SVGID_143_)" fill="none" stroke="#D2D2D2" stroke-width="0.607" stroke-linecap="round" stroke-linejoin="round" d="
						M13.6,22c1.9-0.9,4.7-0.6,4,2.2c2.2-0.2,2.4,2.8,0.2,2.3c1.1,1.4-0.1,4.3-2,3.3c-2.8,2.9-9.1,0.8-7.7-4.9c-5.1,3-7-6.9-0.7-5.7
						c0.1-3,3.9-2.5,4.1-1.1c1-0.7,3.2,0.8,1.7,2C13.9,19.8,15.1,21.5,13.6,22z"/>
				</g>
			</g>
		</g>
	</g>
	<g clip-path="url(#SVGID_2_)">
		<defs>
			<path id="SVGID_144_" d="M7.7,19.6c-2.6-0.5-3.6,1.1-3.6,2.8c0.1,1.9,1.7,3.8,4.2,2.4c-1.2,5.2,4.4,7,7,4.4
				c1.7,0.9,2.8-1.6,1.8-2.9c1,0.2,1.5-0.4,1.4-1c-0.1-0.6-0.6-1.1-1.6-1c0.6-2.5-1.7-2.8-3.4-2.1c1-0.5,0-1.8-0.5-1.7
				c1.3-1.1-0.7-2.4-1.6-1.8c-0.1-0.6-0.9-1-1.7-1C8.8,17.6,7.7,18.1,7.7,19.6"/>
		</defs>
		<clipPath id="SVGID_145_">
			<use xlink:href="#SVGID_144_"  overflow="visible"/>
		</clipPath>
		
			<linearGradient id="SVGID_146_" gradientUnits="userSpaceOnUse" x1="0" y1="40.0001" x2="1" y2="40.0001" gradientTransform="matrix(12.3789 8.3497 -8.3497 12.3789 338.7837 -474.9095)">
			<stop  offset="0" style="stop-color:#FFFFFF"/>
			<stop  offset="4.074100e-03" style="stop-color:#FFFFFF"/>
			<stop  offset="0.7143" style="stop-color:#F6F6F6"/>
			<stop  offset="0.9184" style="stop-color:#EBEBEC"/>
			<stop  offset="1" style="stop-color:#E2E3E4"/>
		</linearGradient>
		<polygon clip-path="url(#SVGID_145_)" fill="url(#SVGID_146_)" points="-2.5,27.3 14.1,38.5 25.2,22 8.6,10.8 		"/>
	</g>
	<g clip-path="url(#SVGID_2_)">
		<defs>
			<rect id="SVGID_147_" width="28" height="40"/>
		</defs>
		<clipPath id="SVGID_148_">
			<use xlink:href="#SVGID_147_"  overflow="visible"/>
		</clipPath>
		<g opacity="0.88" clip-path="url(#SVGID_148_)">
			<g>
				<defs>
					<rect id="SVGID_149_" x="3.7" y="17.1" width="15.3" height="13.6"/>
				</defs>
				<clipPath id="SVGID_150_">
					<use xlink:href="#SVGID_149_"  overflow="visible"/>
				</clipPath>
				<g clip-path="url(#SVGID_150_)">
					<defs>
						<rect id="SVGID_151_" x="3.7" y="17.1" width="15.3" height="13.6"/>
					</defs>
					<clipPath id="SVGID_152_">
						<use xlink:href="#SVGID_151_"  overflow="visible"/>
					</clipPath>
					
						<path clip-path="url(#SVGID_152_)" fill="none" stroke="#E1E1E1" stroke-width="0.9" stroke-linecap="round" stroke-linejoin="round" d="
						M13.3,22.1c1.7-0.8,4.3-0.6,3.6,2c1.9-0.2,2.2,2.5,0.2,2c1,1.3-0.1,3.8-1.8,2.9c-2.5,2.6-8.2,0.8-7-4.4
						c-4.6,2.7-6.3-6.2-0.6-5.1c0.1-2.7,3.5-2.3,3.7-1c0.9-0.6,2.9,0.7,1.6,1.8C13.6,20.2,14.6,21.7,13.3,22.1z"/>
				</g>
			</g>
		</g>
	</g>
	<g clip-path="url(#SVGID_2_)">
		<defs>
			<path id="SVGID_153_" d="M7.8,19.9c-2.6-0.5-3.6,1-3.5,2.5c0.1,1.8,1.8,3.5,4.2,2.1c0.2,1.8,2.9,0.7,2.6-0.5
				c1.1,0.5,3.1-1.2,1.7-1.8c1.4-0.5,0.4-1.8-0.2-1.7c0.8-1.2-0.6-2.2-1.4-1.6c-0.1-0.6-0.8-1-1.6-1C8.8,17.9,7.9,18.5,7.8,19.9"/>
		</defs>
		<clipPath id="SVGID_154_">
			<use xlink:href="#SVGID_153_"  overflow="visible"/>
		</clipPath>
		
			<linearGradient id="SVGID_155_" gradientUnits="userSpaceOnUse" x1="0" y1="40.0002" x2="1" y2="40.0002" gradientTransform="matrix(6.9076 4.6592 -4.6592 6.9076 191.8918 -256.6775)">
			<stop  offset="0" style="stop-color:#FFFFFF"/>
			<stop  offset="4.074100e-03" style="stop-color:#FFFFFF"/>
			<stop  offset="0.6694" style="stop-color:#F6F6F6"/>
			<stop  offset="1" style="stop-color:#EFEFF0"/>
		</linearGradient>
		<polygon clip-path="url(#SVGID_154_)" fill="url(#SVGID_155_)" points="0.3,23.7 11.1,31 18.1,20.6 7.4,13.3 		"/>
	</g>
	<g clip-path="url(#SVGID_2_)">
		<defs>
			<rect id="SVGID_156_" width="28" height="40"/>
		</defs>
		<clipPath id="SVGID_157_">
			<use xlink:href="#SVGID_156_"  overflow="visible"/>
		</clipPath>
		
			<path clip-path="url(#SVGID_157_)" fill="none" stroke="#F0F0F0" stroke-width="0.675" stroke-linecap="round" stroke-linejoin="round" d="
			M12.8,22.2c1.4-0.5,0.4-1.8-0.2-1.7c0.8-1.2-0.6-2.2-1.4-1.6c-0.2-1.2-3.3-1.7-3.4,1c-5.6-1.1-3.9,7.3,0.7,4.6
			c0.2,1.8,2.9,0.7,2.6-0.5C12.2,24.5,14.2,22.8,12.8,22.2z"/>
	</g>
	<g clip-path="url(#SVGID_2_)">
		<defs>
			<rect id="SVGID_158_" width="28" height="40"/>
		</defs>
		<clipPath id="SVGID_159_">
			<use xlink:href="#SVGID_158_"  overflow="visible"/>
		</clipPath>
		<g opacity="0.8" clip-path="url(#SVGID_159_)">
			<g>
				<defs>
					<rect id="SVGID_160_" x="10.2" y="22.9" width="7.2" height="7.3"/>
				</defs>
				<clipPath id="SVGID_161_">
					<use xlink:href="#SVGID_160_"  overflow="visible"/>
				</clipPath>
				<g clip-path="url(#SVGID_161_)">
					<defs>
						<path id="SVGID_162_" d="M12.7,25.6c-1.1-0.5-1.6,0.9-0.5,1.2c-2,1,1.5,3.4,2.7,1.4c1,0.7,2.5-1.3,1.4-2
							c0.6-0.9,0.6-1.9-0.5-1.4c-0.1-0.8-0.6-1.1-1.2-1.1C13.6,23.8,12.6,24.5,12.7,25.6"/>
					</defs>
					<clipPath id="SVGID_163_">
						<use xlink:href="#SVGID_162_"  overflow="visible"/>
					</clipPath>
					
						<linearGradient id="SVGID_164_" gradientUnits="userSpaceOnUse" x1="0" y1="40.0844" x2="1" y2="40.0844" gradientTransform="matrix(5.1353 0 0 5.1353 11.6016 -178.832)">
						<stop  offset="0" style="stop-color:#FFFFFF"/>
						<stop  offset="4.074100e-03" style="stop-color:#FFFFFF"/>
						<stop  offset="0.5102" style="stop-color:#F6F6F6"/>
						<stop  offset="1" style="stop-color:#EFEFF0"/>
					</linearGradient>
					<rect x="10.2" y="23.8" clip-path="url(#SVGID_163_)" fill="url(#SVGID_164_)" width="7.2" height="6.5"/>
				</g>
			</g>
		</g>
	</g>
	<g clip-path="url(#SVGID_2_)">
		<defs>
			<path id="SVGID_165_" d="M13,25.2c-0.9-0.4-1.3,0.7-0.4,1c-1.6,0.8,1.2,2.8,2.2,1.2c0.8,0.6,2-1.1,1.1-1.6
				c0.5-0.7,0.5-1.6-0.4-1.1c-0.1-0.6-0.5-0.9-1-0.9C13.8,23.7,12.9,24.3,13,25.2"/>
		</defs>
		<clipPath id="SVGID_166_">
			<use xlink:href="#SVGID_165_"  overflow="visible"/>
		</clipPath>
		
			<linearGradient id="SVGID_167_" gradientUnits="userSpaceOnUse" x1="0" y1="40.0002" x2="1" y2="40.0002" gradientTransform="matrix(4.1602 0 0 4.1602 12.1211 -140.125)">
			<stop  offset="0" style="stop-color:#FFFFFF"/>
			<stop  offset="4.074100e-03" style="stop-color:#FFFFFF"/>
			<stop  offset="0.5102" style="stop-color:#F6F6F6"/>
			<stop  offset="1" style="stop-color:#EFEFF0"/>
		</linearGradient>
		<rect x="11" y="23.7" clip-path="url(#SVGID_166_)" fill="url(#SVGID_167_)" width="5.8" height="5.2"/>
	</g>
	<g clip-path="url(#SVGID_2_)">
		<defs>
			<path id="SVGID_168_" d="M9.5,23.1c-0.1,0.1-0.2,0.2-0.3,0.2c-0.3,0.4-0.5,0.6-0.8,0.8c0.1,1,1.8,1.1,2,0.4
				c0.7,0.1,1.2-0.8,0.8-1.3C10.7,23.5,9.7,23.7,9.5,23.1"/>
		</defs>
		<clipPath id="SVGID_169_">
			<use xlink:href="#SVGID_168_"  overflow="visible"/>
		</clipPath>
		
			<linearGradient id="SVGID_170_" gradientUnits="userSpaceOnUse" x1="-1.835063e-04" y1="39.9992" x2="0.9998" y2="39.9992" gradientTransform="matrix(2.8999 0 0 2.8999 8.3945 -91.8633)">
			<stop  offset="0" style="stop-color:#FFFFFF"/>
			<stop  offset="4.074100e-03" style="stop-color:#FFFFFF"/>
			<stop  offset="0.5102" style="stop-color:#F6F6F6"/>
			<stop  offset="1" style="stop-color:#EFEFF0"/>
		</linearGradient>
		<rect x="8.4" y="23.1" clip-path="url(#SVGID_169_)" fill="url(#SVGID_170_)" width="3.2" height="2.1"/>
	</g>
	<g clip-path="url(#SVGID_2_)">
		<defs>
			<rect id="SVGID_171_" width="28" height="40"/>
		</defs>
		<clipPath id="SVGID_172_">
			<use xlink:href="#SVGID_171_"  overflow="visible"/>
		</clipPath>
		<g opacity="0.9" clip-path="url(#SVGID_172_)">
			<g>
				<defs>
					<rect id="SVGID_173_" x="9.1" y="18.6" width="3.9" height="3.7"/>
				</defs>
				<clipPath id="SVGID_174_">
					<use xlink:href="#SVGID_173_"  overflow="visible"/>
				</clipPath>
				<g clip-path="url(#SVGID_174_)">
					<defs>
						<path id="SVGID_175_" d="M9.5,19.4c0.3,0.1,0.8,0.5,1.2,0.8c0.4-0.5,1.2,0.1,0.9,0.7c0.5,0.3,0.5,0.9,0.2,1.2
							c0.9,0.1,1.2-1.2,0.6-1.6c0.4-0.7-0.5-1.5-1.2-1.1C11,19,10.4,18.8,10,18.8C9.6,18.8,9.3,19,9.5,19.4"/>
					</defs>
					<clipPath id="SVGID_176_">
						<use xlink:href="#SVGID_175_"  overflow="visible"/>
					</clipPath>
					
						<linearGradient id="SVGID_177_" gradientUnits="userSpaceOnUse" x1="0" y1="40.0408" x2="1" y2="40.0408" gradientTransform="matrix(3.2759 0 0 3.2759 9.4199 -110.6328)">
						<stop  offset="0" style="stop-color:#FFFFFF"/>
						<stop  offset="4.074100e-03" style="stop-color:#FFFFFF"/>
						<stop  offset="1" style="stop-color:#F6F6F6"/>
					</linearGradient>
					<rect x="9.3" y="18.8" clip-path="url(#SVGID_176_)" fill="url(#SVGID_177_)" width="3.7" height="3.4"/>
				</g>
			</g>
		</g>
		<g opacity="0.95" clip-path="url(#SVGID_172_)">
			<g>
				<defs>
					<rect id="SVGID_178_" x="8" y="19.5" width="4" height="4.2"/>
				</defs>
				<clipPath id="SVGID_179_">
					<use xlink:href="#SVGID_178_"  overflow="visible"/>
				</clipPath>
				<g clip-path="url(#SVGID_179_)">
					<defs>
						<path id="SVGID_180_" d="M9.8,19.9c-0.4,0-0.6,0.4-0.7,0.7c-0.6-0.2-0.8,0.2-0.8,0.6v0.1c0,0.4,0.2,0.8,0.5,0.8
							c-0.6,0.5-0.5,1.6,0.4,1.2c0.1,0,0.2-0.1,0.3-0.2c0.2,0.6,1.2,0.4,1.7,0c0.3-0.2,0.4-0.5,0.2-0.7c0.2,0,0.3-0.1,0.4-0.2
							c0.3-0.3,0.3-1-0.2-1.2c0.3-0.6-0.5-1.3-0.9-0.7c0,0,0,0-0.1,0.1C10.3,20,10,19.9,9.8,19.9L9.8,19.9z"/>
					</defs>
					<clipPath id="SVGID_181_">
						<use xlink:href="#SVGID_180_"  overflow="visible"/>
					</clipPath>
					
						<linearGradient id="SVGID_182_" gradientUnits="userSpaceOnUse" x1="0" y1="40.0173" x2="1" y2="40.0173" gradientTransform="matrix(3.6523 0 0 3.6523 8.3047 -124.502)">
						<stop  offset="0" style="stop-color:#FFFFFF"/>
						<stop  offset="4.074100e-03" style="stop-color:#FFFFFF"/>
						<stop  offset="1" style="stop-color:#F6F6F6"/>
					</linearGradient>
					<rect x="8.2" y="19.6" clip-path="url(#SVGID_181_)" fill="url(#SVGID_182_)" width="3.9" height="4.1"/>
				</g>
			</g>
		</g>
	</g>
	<polygon clip-path="url(#SVGID_2_)" fill="#FFFFFF" points="4,18.4 4,2.4 15.6,14 8.6,14 8.4,14.1 	"/>
	<polygon clip-path="url(#SVGID_2_)" points="5,4.8 5,16 8,13.1 8.1,13 13.2,13 	"/>
</g>
</svg>
